<svg xmlns="http://www.w3.org/2000/svg" height="512" viewBox="0 0 512 512" width="512"><path d="m 376,384 24,40 24,-40 z" fill="#fff"/><path d="m 366.93333,187.73333 17.06667,0 0,-102.399997 85.33333,0 0,119.466667 17.06667,0 0,-128 a 8.5333333,8.5333333 0 0 0 -8.53333,-8.533333 l -8.53334,0 0,-25.6 A 8.5333333,8.5333333 0 0 0 460.8,34.133333 l -76.8,0 0,-25.5999997 A 8.5333333,8.5333333 0 0 0 375.46667,0 l -187.73334,0 0,17.066667 179.2,0 z M 384,51.2 l 68.26667,0 0,17.066667 -68.26667,0 z m -341.333333,34.133333 85.333333,0 0,110.933337 17.06667,0 0,-179.200003 25.6,0 0,-17.066667 -34.13334,0 A 8.5333333,8.5333333 0 0 0 128,8.5333333 l 0,25.5999997 -76.8,0 a 8.5333333,8.5333333 0 0 0 -8.533333,8.533334 l 0,25.6 -8.533334,0 A 8.5333333,8.5333333 0 0 0 25.6,76.8 l 0,136.53333 17.066667,0 z M 59.733333,51.2 128,51.2 l 0,17.066667 -68.266667,0 z M 281.6,42.666667 a 8.5333333,8.5333333 0 0 0 -8.53333,-8.533334 l -34.13334,0 A 8.5333333,8.5333333 0 0 0 230.4,42.666667 L 230.4,76.8 a 8.5333333,8.5333333 0 0 0 8.53333,8.533333 l 34.13334,0 A 8.5333333,8.5333333 0 0 0 281.6,76.8 Z m -17.06667,25.6 -17.06666,0 0,-17.066667 17.06666,0 z m 85.33334,-25.6 a 8.5333333,8.5333333 0 0 0 -8.53334,-8.533334 l -34.13333,0 a 8.5333333,8.5333333 0 0 0 -8.53333,8.533334 l 0,34.133333 A 8.5333333,8.5333333 0 0 0 307.2,85.333333 l 34.13333,0 A 8.5333333,8.5333333 0 0 0 349.86667,76.8 Z m -17.06667,25.6 -17.06667,0 0,-17.066667 17.06667,0 z m -119.46667,-25.6 A 8.5333333,8.5333333 0 0 0 204.8,34.133333 l -34.13333,0 a 8.5333333,8.5333333 0 0 0 -8.53334,8.533334 l 0,34.133333 a 8.5333333,8.5333333 0 0 0 8.53334,8.533333 l 34.13333,0 A 8.5333333,8.5333333 0 0 0 213.33333,76.8 Z m -17.06666,25.6 -17.06667,0 0,-17.066667 17.06667,0 z M 281.6,110.93333 A 8.5333333,8.5333333 0 0 0 273.06667,102.4 l -34.13334,0 A 8.5333333,8.5333333 0 0 0 230.4,110.93333 l 0,34.13334 a 8.5333333,8.5333333 0 0 0 8.53333,8.53333 l 34.13334,0 A 8.5333333,8.5333333 0 0 0 281.6,145.06667 Z m -17.06667,25.6 -17.06666,0 0,-17.06666 17.06666,0 z m 85.33334,-25.6 A 8.5333333,8.5333333 0 0 0 341.33333,102.4 l -34.13333,0 a 8.5333333,8.5333333 0 0 0 -8.53333,8.53333 l 0,34.13334 A 8.5333333,8.5333333 0 0 0 307.2,153.6 l 34.13333,0 a 8.5333333,8.5333333 0 0 0 8.53334,-8.53333 z m -17.06667,25.6 -17.06667,0 0,-17.06666 17.06667,0 z m -119.46667,-25.6 A 8.5333333,8.5333333 0 0 0 204.8,102.4 l -34.13333,0 a 8.5333333,8.5333333 0 0 0 -8.53334,8.53333 l 0,34.13334 a 8.5333333,8.5333333 0 0 0 8.53334,8.53333 l 34.13333,0 a 8.5333333,8.5333333 0 0 0 8.53333,-8.53333 z m -17.06666,25.6 -17.06667,0 0,-17.06666 17.06667,0 z M 281.6,179.2 l 0,8.53333 -51.2,0 0,-8.53333 a 8.5333333,8.5333333 0 0 1 8.53333,-8.53333 l 34.13334,0 A 8.5333333,8.5333333 0 0 1 281.6,179.2 Z m 68.26667,0 0,8.53333 -51.2,0 0,-8.53333 A 8.5333333,8.5333333 0 0 1 307.2,170.66667 l 34.13333,0 a 8.5333333,8.5333333 0 0 1 8.53334,8.53333 z m -136.53334,0 0,8.53333 -51.2,0 0,-8.53333 a 8.5333333,8.5333333 0 0 1 8.53334,-8.53333 l 34.13333,0 a 8.5333333,8.5333333 0 0 1 8.53333,8.53333 z m -102.4,-68.26667 A 8.5333333,8.5333333 0 0 0 102.4,102.4 l -34.133333,0 a 8.5333333,8.5333333 0 0 0 -8.533334,8.53333 l 0,34.13334 A 8.5333333,8.5333333 0 0 0 68.266667,153.6 l 34.133333,0 a 8.5333333,8.5333333 0 0 0 8.53333,-8.53333 z m -17.06666,25.6 -17.06667,0 0,-17.06666 17.06667,0 z m 17.06666,42.66667 0,8.53333 -51.199997,0 0,-8.53333 a 8.5333333,8.5333333 0 0 1 8.533334,-8.53333 l 34.133333,0 A 8.5333333,8.5333333 0 0 1 110.93333,179.2 Z M 452.26667,110.93333 A 8.5333333,8.5333333 0 0 0 443.73333,102.4 l -34.13333,0 a 8.5333333,8.5333333 0 0 0 -8.53333,8.53333 l 0,34.13334 A 8.5333333,8.5333333 0 0 0 409.6,153.6 l 34.13333,0 a 8.5333333,8.5333333 0 0 0 8.53334,-8.53333 z m -17.06667,25.6 -17.06667,0 0,-17.06666 17.06667,0 z m 17.06667,42.66667 0,8.53333 -51.2,0 0,-8.53333 A 8.5333333,8.5333333 0 0 1 409.6,170.66667 l 34.13333,0 A 8.5333333,8.5333333 0 0 1 452.26667,179.2 Z M 76.9568,332.8 l 17.06667,0 a 8.5333333,8.5333333 0 0 0 17.06666,0 l 17.06667,0 a 25.6,25.6 0 0 1 -51.2,0 z m 59.73333,-17.06667 -17.06666,0 0,-17.06666 17.06666,0 z m 247.30987,25.6 17.06667,0 a 8.5333333,8.5333333 0 0 0 17.06666,0 l 17.06667,0 a 25.6,25.6 0 0 1 -51.2,0 z M 8.533333,512 503.46667,512 A 8.5333333,8.5333333 0 0 0 512,503.46667 l 0,-51.2 -17.06667,0 0,42.66666 -17.06666,0 0,-59.73333 -17.06667,0 0,17.06667 -25.6,0 0,17.06666 25.6,0 0,25.6 -42.66667,0 0,-57.3696 21.89867,-36.49706 29.30133,0 a 25.6288,25.6288 0 0 1 25.6,25.6 l 0,8.53333 17.06667,0 0,-8.53333 A 42.714667,42.714667 0 0 0 469.33333,384 l -14.49173,0 a 68.106667,68.106667 0 0 0 23.18507,-51.2 l 0,-23.74613 a 25.562667,25.562667 0 0 0 -0.0533,-37.88907 c -0.0235,-0.42667 -0.10666,-23.69813 -0.10666,-23.69813 A 42.714667,42.714667 0 0 0 435.2,204.8 l -51.2,0 a 42.714667,42.714667 0 0 0 -42.66667,42.66667 l 0,23.6064 a 25.549867,25.549867 0 0 0 0.16,38.26026 l 0,23.46667 A 68.106667,68.106667 0 0 0 364.6784,384 c 0,0 -19.9552,0.25813 -22.46613,0.7136 a 42.453333,42.453333 0 0 0 -26.47894,-9.24693 l -14.65173,0 a 68.106667,68.106667 0 0 0 23.18507,-51.2 l 0,-76.8 A 42.714667,42.714667 0 0 0 281.6,204.8 l -81.06667,0 a 29.866667,29.866667 0 0 0 -12.6816,56.8992 c -0.0768,0.93867 -0.1184,62.56747 -0.1184,62.56747 a 68.106667,68.106667 0 0 0 23.18507,51.2 l -14.65173,0 A 42.4096,42.4096 0 0 0 179.2,379.04 l 0,-93.17333 A 81.066667,81.066667 0 0 0 36.322133,233.40907 l 13.013334,11.04853 a 64.005333,64.005333 0 0 1 112.797863,41.40907 l -1.66826,5.58826 L 134.66347,259.2 a 8.5333333,8.5333333 0 0 0 -13.32694,0 125.3184,125.3184 0 0 1 -82.746663,46.30827 l -4.456534,0.55893 0,-20.20053 A 64.106667,64.106667 0 0 1 41.6576,255.7248 L 26.609067,247.68 a 81.226667,81.226667 0 0 0 -9.5424,38.18667 l 0,98.1504 A 42.823467,42.823467 0 0 0 0,418.13333 l 0,85.33334 A 8.5333333,8.5333333 0 0 0 8.533333,512 Z M 409.6,418.6144 l -10.52907,-17.54773 21.05814,0 z M 358.4,247.46667 a 25.6288,25.6288 0 0 1 25.6,-25.6 l 51.2,0 a 25.6288,25.6288 0 0 1 25.6,25.6 l 0,17.06666 -102.4,0 z m -8.53333,42.66666 A 8.5429333,8.5429333 0 0 1 358.4,281.6 l 102.4,0 a 8.533335,8.533335 0 0 1 0,17.06667 l -5.45813,0 a 85.856,85.856 0 0 1 -20.8,-2.56 103.1968,103.1968 0 0 0 -49.8816,0 85.856,85.856 0 0 1 -20.8,2.56 l -5.46027,0 a 8.5429333,8.5429333 0 0 1 -8.53333,-8.53334 z M 358.56,332.8 l 0,-17.06667 5.29813,0 a 102.69547,102.69547 0 0 0 11.60854,-0.6688 l 0,9.20214 17.06666,0 0,-12.4384 a 86.16,86.16 0 0 1 34.13334,0 l 0,12.4384 17.06666,0 0,-9.20214 a 102.70933,102.70933 0 0 0 11.60854,0.6688 l 5.45813,0 0.16,0 0,17.06667 a 51.2,51.2 0 0 1 -102.4,0 z m 20.608,68.26667 21.89867,36.49706 0,57.3696 -42.66667,0 0,-25.6 25.6,0 0,-17.06666 -25.6,0 0,-34.13334 a 42.4096,42.4096 0 0 0 -3.57333,-17.06666 z m -285.30133,93.86666 -34.133337,0 0,-8.53333 A 8.5333333,8.5333333 0 0 0 56.32,479.57333 28.4704,28.4704 0 0 1 53.2704,436.66453 l 3.963733,-3.96373 -1.0752,-1.0752 3.5744,1.19147 0,10.91626 a 8.5333333,8.5333333 0 0 0 4.7168,7.632 L 93.86667,466.0736 Z m -22.901337,-76.3616 -14.368,-4.7904 9.774934,-13.03466 L 84.94187,442.528 76.8,438.45973 l 0,-11.79306 a 8.5333333,8.5333333 0 0 0 -5.834667,-8.09494 z m 10.432,-26.0384 42.005337,0 L 102.4,439.78667 Z m 57.030397,8.21334 9.77494,13.03253 -14.368,4.7904 A 8.5333333,8.5333333 0 0 0 128,426.66667 l 0,11.79306 -8.14187,4.0704 z M 153.6,474.61333 a 28.6464,28.6464 0 0 1 -5.12,4.96 8.5333333,8.5333333 0 0 0 -3.41333,6.82667 l 0,8.53333 -34.13334,0 0,-28.85973 29.41654,-14.70827 a 8.5333333,8.5333333 0 0 0 4.7168,-7.632 l 0,-10.91626 3.5744,-1.19147 -1.0752,1.0752 3.968,3.968 a 28.996267,28.996267 0 0 1 2.06613,2.30507 z m 102.4,16.78507 -8.13333,-8.13227 8.08106,-72.72426 a 8.4522667,8.4522667 0 0 0 0.0523,-0.92694 8.4522667,8.4522667 0 0 0 0.0523,0.92694 l 8.08106,72.72426 z m 1.4336,-86.53227 A 8.5333333,8.5333333 0 0 0 256,409.584 a 8.5333333,8.5333333 0 0 0 -1.4336,-4.71787 l -8.22187,-12.3328 19.30667,0 z m 58.29973,-12.3328 a 25.629867,25.629867 0 0 1 25.6,25.6 l 0,76.8 -17.06666,0 0,-68.26666 -17.06667,0 0,68.26666 -30.59947,0 2.50027,-2.4992 a 8.5333333,8.5333333 0 0 0 2.44693,-6.976 l -8.18986,-73.70666 12.80853,-19.21814 z m -128,-157.86666 a 12.813867,12.813867 0 0 1 12.8,-12.8 l 81.06667,0 a 25.6288,25.6288 0 0 1 25.6,25.6 l 0,20.39253 -9.74933,-16.2496 a 8.5333333,8.5333333 0 0 0 -7.31734,-4.14293 l -89.6,0 a 12.813867,12.813867 0 0 1 -12.8,-12.8 z m 17.06667,89.6 0,-59.73334 80.5024,0 21.8976,36.49707 0,23.23627 a 51.2,51.2 0 0 1 -102.4,0 z m -34.13333,93.86666 a 25.629867,25.629867 0 0 1 25.6,-25.6 l 29.56693,0 12.80853,19.21387 -8.18986,73.70667 a 8.5333333,8.5333333 0 0 0 2.44693,6.976 l 2.50027,2.50346 -30.59947,0 0,-68.26666 -17.06667,0 0,68.26666 -17.06666,0 z m -8.51094,-25.6 a 42.773333,42.773333 0 0 0 -3.8848,6.2272 L 153.6,392.53333 Z m -0.0224,-34.98666 0,17.92 -14.49173,0 a 68.72,68.72 0 0 0 14.49173,-17.92 z M 51.36,320.70187 a 143.2608,143.2608 0 0 0 18.3296,-4.96854 l 15.80373,0 0,-6.50666 a 142.21333,142.21333 0 0 0 42.26027,-31.33654 l 26.0064,32.50774 0,13.8688 a 51.2,51.2 0 0 1 -102.4,0 z m -17.066667,2.544 0,1.0208 a 68.106667,68.106667 0 0 0 23.185067,51.2 l -14.811733,0 a 42.7904,42.7904 0 0 0 -8.533334,0.8672 z m -17.226666,94.88746 a 25.581867,25.581867 0 0 1 25.6,-25.6 l 8.533333,0 -15.36,20.48 a 8.5194667,8.5194667 0 0 0 3.901867,13.12 45.553067,45.553067 0 0 0 -6.414934,9.06667 l -16.260266,0 z m 0,34.13334 11.031466,0 a 45.44,45.44 0 0 0 14.568534,38.1312 l 0,4.53546 -25.6,0 z m 213.333333,-128 17.06667,0 a 8.5333333,8.5333333 0 0 0 17.06666,0 l 17.06667,0 a 25.6,25.6 0 0 1 -51.2,0 z m 8.53333,-17.06667 -17.06666,0 0,-17.06667 17.06666,0 z m 51.2,0 -17.06666,0 0,-17.06667 17.06666,0 z" fill="#fff"/></svg>