<svg height="496pt" width="496pt" viewBox="-2 0 496 496" xmlns="http://www.w3.org/2000/svg"><path d="m246.425781 400c-8.824219 0-16-7.175781-16-16h-16c0 14.871094 10.230469 27.289062 24 30.863281v17.136719h16v-17.136719c13.765625-3.574219 24-15.992187 24-30.863281 0-17.648438-14.355469-32-32-32-8.824219 0-16-7.175781-16-16s7.175781-16 16-16c8.820313 0 16 7.175781 16 16h16c0-14.871094-10.234375-27.289062-24-30.863281v-17.136719h-16v17.136719c-13.769531 3.574219-24 15.992187-24 30.863281 0 17.648438 14.351563 32 32 32 8.820313 0 16 7.175781 16 16s-7.179687 16-16 16zm0 0" fill="#fff"/><path d="m246.425781 480c-60.417969 0-111.601562-45.136719-119.074219-104.992188l-.871093-7.007812h-85.632813l26.015625-17.34375-8.871093-13.3125-57.992188 38.65625 57.984375 38.65625 8.871094-13.3125-26.007813-17.34375h71.695313c11.441406 64.328125 67.792969 112 133.882812 112 68.46875 0 126.484375-51.167969 134.941407-119.007812l-15.871094-1.984376c-7.472656 59.855469-58.65625 104.992188-119.070313 104.992188zm0 0" fill="#fff"/><path d="m46.425781 160c13.230469 0 24-10.769531 24-24 0-2.753906-.5625-5.351562-1.417969-7.816406l44.816407-35.847656c3.671875 2.28125 7.96875 3.664062 12.601562 3.664062 6.453125 0 12.292969-2.59375 16.605469-6.742188l39.679688 19.832032c-.109376.964844-.285157 1.910156-.285157 2.910156 0 13.230469 10.765625 24 24 24 13.230469 0 24-10.769531 24-24 0-2.214844-.402343-4.320312-.96875-6.359375l43.0625-30.144531c3.9375 2.808594 8.710938 4.503906 13.90625 4.503906 7.160157 0 13.527344-3.214844 17.925781-8.207031l38.167969 15.261719c-.015625.320312-.09375.625-.09375.945312 0 13.230469 10.765625 24 24 24 13.230469 0 24-10.769531 24-24 0-2.753906-.5625-5.351562-1.417969-7.816406l44.816407-35.847656c3.671875 2.28125 7.96875 3.664062 12.601562 3.664062 13.230469 0 24-10.769531 24-24s-10.769531-24-24-24c-13.234375 0-24 10.769531-24 24 0 2.753906.558594 5.351562 1.414063 7.816406l-44.816406 35.847656c-3.671876-2.28125-7.96875-3.664062-12.597657-3.664062-7.160156 0-13.53125 3.214844-17.929687 8.207031l-38.167969-15.261719c.015625-.320312.097656-.625.097656-.945312 0-13.230469-10.769531-24-24-24-13.234375 0-24 10.769531-24 24 0 2.214844.398438 4.320312.957031 6.359375l-43.0625 30.144531c-3.929687-2.808594-8.703124-4.503906-13.894531-4.503906-6.457031 0-12.296875 2.59375-16.609375 6.742188l-39.679687-19.832032c.109375-.964844.289062-1.910156.289062-2.910156 0-13.230469-10.769531-24-24-24-13.234375 0-24 10.769531-24 24 0 2.753906.558594 5.351562 1.414063 7.816406l-44.816406 35.847656c-3.671876-2.28125-7.96875-3.664062-12.597657-3.664062-13.234375 0-24 10.769531-24 24s10.765625 24 24 24zm400-144c4.414063 0 8 3.585938 8 8s-3.585937 8-8 8c-4.417969 0-8-3.585938-8-8s3.582031-8 8-8zm-80 64c4.414063 0 8 3.585938 8 8s-3.585937 8-8 8c-4.417969 0-8-3.585938-8-8s3.582031-8 8-8zm-80-32c4.414063 0 8 3.585938 8 8s-3.585937 8-8 8c-4.417969 0-8-3.585938-8-8s3.582031-8 8-8zm-80 56c4.414063 0 8 3.585938 8 8s-3.585937 8-8 8c-4.417969 0-8-3.585938-8-8s3.582031-8 8-8zm-80-40c4.414063 0 8 3.585938 8 8s-3.585937 8-8 8c-4.417969 0-8-3.585938-8-8s3.582031-8 8-8zm-80 64c4.414063 0 8 3.585938 8 8s-3.585937 8-8 8c-4.417969 0-8-3.585938-8-8s3.582031-8 8-8zm0 0" fill="#fff"/><path d="m414.425781 256h64v-192h-64zm16-176h32v160h-32zm0 0" fill="#fff"/><path d="m334.425781 256h64v-128h-64zm16-112h32v96h-32zm0 0" fill="#fff"/><path d="m94.425781 256h64v-144h-64zm16-128h32v112h-32zm0 0" fill="#fff"/><path d="m78.425781 176h-64v80h64zm-16 64h-32v-48h32zm0 0" fill="#fff"/><path d="m434.863281 313.34375-8.871093 13.3125 26.007812 17.34375h-70.222656c-4.746094-42.183594-28.976563-78.257812-63.351563-99.542969v-148.457031h-64v128.375c-2.65625-.160156-5.304687-.375-8-.375-2.699219 0-5.335937.230469-8 .382812v-72.382812h-64v92.625c-36.242187 22.558594-61.265625 61.589844-63.984375 106.902344l15.964844.953125c3.792969-63.074219 56.515625-112.480469 120.019531-112.480469 63.75 0 116.46875 49.390625 120.015625 112.449219l.421875 7.550781h85.144531l-26.015624 17.34375 8.871093 13.3125 57.984375-38.65625zm-244.4375-145.34375h32v58.207031c-11.203125 1.992188-21.90625 5.402344-32 9.960938zm80-56h32v124.078125c-10.097656-4.535156-20.792969-7.933594-32-9.917969zm0 0" fill="#fff"/><path d="m142.425781 360c0 24.550781 8.765625 48.414062 24.679688 67.183594l12.199219-10.34375c-13.464844-15.878906-20.878907-36.0625-20.878907-56.839844 0-48.519531 39.476563-88 88-88 20.773438 0 40.957031 7.414062 56.839844 20.878906l10.34375-12.199218c-18.769531-15.910157-42.632813-24.679688-67.183594-24.679688-57.347656 0-104 46.65625-104 104zm0 0" fill="#fff"/><path d="m179.238281 439.320312c18.769531 15.910157 42.632813 24.679688 67.1875 24.679688 57.34375 0 104-46.65625 104-104 0-24.550781-8.769531-48.414062-24.683593-67.183594l-12.199219 10.34375c13.464843 15.878906 20.882812 36.0625 20.882812 56.839844 0 48.519531-39.480469 88-88 88-20.777343 0-40.960937-7.414062-56.839843-20.878906zm0 0" fill="#fff"/></svg>